<?xml version="1.0" encoding="utf-8"?>
<!-- Generator: Adobe Illustrator 16.0.0, SVG Export Plug-In . SVG Version: 6.00 Build 0)  -->
<!DOCTYPE svg PUBLIC "-//W3C//DTD SVG 1.1//EN" "http://www.w3.org/Graphics/SVG/1.1/DTD/svg11.dtd">
<svg version="1.1" id="Layer_1" xmlns="http://www.w3.org/2000/svg" xmlns:xlink="http://www.w3.org/1999/xlink" x="0px" y="0px"
	 width="36px" height="37px" viewBox="0 0 36 37" enable-background="new 0 0 36 37" xml:space="preserve">
<g>
	<path fill="#F0424B" d="M16.561,29c2.88,0,5.057-0.871,6.653-2.668c1.661-1.868,2.469-4.418,2.469-7.798
		c0-3.627-0.899-6.422-2.749-8.518C21.149,7.996,18.687,7,15.404,7H12v18.834c0,2.341,0.407,2.955,0.433,2.994
		c-0.001,0,0.022-0.002,0.022-0.002c0.012,0,0.316,0.174,1.191,0.174H16.561z"/>
	<path fill="#F0424B" d="M-1,0v37h37V0H-1z M29.358,29.862C26.238,32.675,21.922,34,16.526,34H1v-5h2.095
		c0.643,0,1.036,0.001,1.038,0C4.128,29,5,28.661,5,26.842V9.217c0-1.786-0.674-2.302-0.697-2.339c0,0-0.19,0.119-0.19,0.119
		C4.099,6.997,3.692,7,3.095,7H1V2h15.165c5.351,0,9.725,1.493,13.003,4.6c3.309,3.136,4.985,7.072,4.985,11.879
		C34.153,23.226,32.54,26.994,29.358,29.862z"/>
</g>
</svg>
